<svg width="24" height="24" viewBox="0 0 24 24" fill="none" xmlns="http://www.w3.org/2000/svg">
<path d="M21.6 5.5H2.4C1.9 5.5 1.5 5.9 1.5 6.4V20.4C1.5 20.9 1.9 21.3 2.4 21.3H21.6C22.1 21.3 22.5 20.9 22.5 20.4V6.4C22.5 5.9 22.1 5.5 21.6 5.5Z" stroke="black" stroke-width="1.75" stroke-linecap="round" stroke-linejoin="round"/>
<path d="M16.3996 5.5V3.8C16.3996 3.3 16.1996 2.9 15.8996 2.6C15.4996 2.2 15.0996 2 14.5996 2H9.39961C8.89961 2 8.49961 2.2 8.09961 2.5C7.69961 2.8 7.59961 3.3 7.59961 3.8V5.5" stroke="black" stroke-width="1.75" stroke-linecap="round" stroke-linejoin="round"/>
<path d="M22.5 11.4004C19.3 13.2004 15.7 14.2004 12 14.2004C8.3 14.2004 4.7 13.2004 1.5 11.4004" stroke="black" stroke-width="1.75" stroke-linecap="round" stroke-linejoin="round"/>
<path d="M10.6992 10.7998H13.2992" stroke="black" stroke-width="1.75" stroke-linecap="round" stroke-linejoin="round"/>
</svg>
