<svg width="24" height="24" viewBox="0 0 24 24" fill="none" xmlns="http://www.w3.org/2000/svg">
<path d="M12.0504 16.2678C14.4504 16.2678 16.4504 14.2678 16.4504 11.8678C16.4504 9.46777 14.4504 7.46777 12.0504 7.46777C9.65039 7.46777 7.65039 9.46777 7.65039 11.8678C7.65039 14.2678 9.65039 16.2678 12.0504 16.2678Z" stroke="black" stroke-width="1.75" stroke-linecap="round" stroke-linejoin="round"/>
<path d="M17.8516 20.6679C15.9516 21.9679 13.5516 22.5679 11.2516 22.3679C8.9516 22.1679 6.7516 21.2679 4.9516 19.6679C3.2516 18.0679 2.0516 15.9679 1.6516 13.6679C1.2516 11.3679 1.6516 8.96786 2.7516 6.96786C3.8516 4.86786 5.6516 3.26786 7.7516 2.36786C9.8516 1.46786 12.2516 1.26786 14.5516 1.76786C16.8516 2.36786 18.8516 3.66786 20.2516 5.46786C21.6516 7.26786 22.4516 9.56786 22.4516 11.9679C22.4516 14.3679 21.5516 16.3679 19.3516 16.3679C17.1516 16.3679 16.2516 14.3679 16.2516 11.9679V7.46786" stroke="black" stroke-width="1.75" stroke-linecap="round" stroke-linejoin="round"/>
</svg>
