<svg width="540" height="540" viewBox="0 0 540 540" fill="none" xmlns="http://www.w3.org/2000/svg">
<path d="M267.341 32.6885H250.688V48.7719H267.341V32.6885Z" fill="white" stroke="#0D0D1E" stroke-width="3" stroke-miterlimit="10" stroke-linecap="round" stroke-linejoin="round"/>
<path d="M272.173 32.6165H245.857C243.955 32.6165 242.414 31.0756 242.414 29.1735C242.414 27.2714 243.955 25.7305 245.857 25.7305H272.173C274.075 25.7305 275.616 27.2714 275.616 29.1735C275.616 31.0836 274.075 32.6165 272.173 32.6165Z" fill="white" stroke="#0D0D1E" stroke-width="3" stroke-miterlimit="10" stroke-linecap="round" stroke-linejoin="round"/>
<path d="M259.018 109.51C278.078 109.51 293.529 94.0593 293.529 74.9997C293.529 55.9401 278.078 40.4893 259.018 40.4893C239.959 40.4893 224.508 55.9401 224.508 74.9997C224.508 94.0593 239.959 109.51 259.018 109.51Z" fill="white" stroke="#0D0D1E" stroke-width="3" stroke-miterlimit="10" stroke-linecap="round" stroke-linejoin="round"/>
<path d="M235.416 57.127H219.758V92.7449H235.416V57.127Z" fill="white"/>
<path d="M206.764 62.4395H237.622" stroke="#0D0D1E" stroke-width="3" stroke-miterlimit="10" stroke-linecap="round" stroke-linejoin="round"/>
<path d="M206.764 74.2373H237.622" stroke="#0D0D1E" stroke-width="3" stroke-miterlimit="10" stroke-linecap="round" stroke-linejoin="round"/>
<path d="M206.764 86.0439H237.622" stroke="#0D0D1E" stroke-width="3" stroke-miterlimit="10" stroke-linecap="round" stroke-linejoin="round"/>
<path d="M252.76 73.6441L257.936 82.5446L298.105 52.5205" stroke="#0D0D1E" stroke-width="3" stroke-miterlimit="10" stroke-linecap="round" stroke-linejoin="round"/>
<path d="M437.108 169.775C456.7 169.775 472.582 153.893 472.582 134.302C472.582 114.71 456.7 98.8281 437.108 98.8281C417.517 98.8281 401.635 114.71 401.635 134.302C401.635 153.893 417.517 169.775 437.108 169.775Z" fill="#0D0D1E" stroke="#0D0D1E" stroke-width="3" stroke-miterlimit="10" stroke-linecap="round" stroke-linejoin="round"/>
<path d="M437.108 117.488L441.282 130.329H454.789L443.858 138.267L448.031 151.116L437.108 143.178L426.185 151.116L430.359 138.267L419.428 130.329H432.935L437.108 117.488Z" fill="#0D0D1E" stroke="#0D0D1E" stroke-width="3" stroke-miterlimit="10" stroke-linecap="round" stroke-linejoin="round"/>
<path d="M437.108 166.308C456.7 166.308 472.582 150.426 472.582 130.835C472.582 111.243 456.7 95.3613 437.108 95.3613C417.517 95.3613 401.635 111.243 401.635 130.835C401.635 150.426 417.517 166.308 437.108 166.308Z" fill="white" stroke="#0D0D1E" stroke-width="3" stroke-miterlimit="10" stroke-linecap="round" stroke-linejoin="round"/>
<path d="M437.108 114.021L441.282 126.871H454.789L443.858 134.808L448.031 147.649L437.108 139.712L426.185 147.649L430.359 134.808L419.428 126.871H432.935L437.108 114.021Z" fill="#FFCF48" stroke="#0D0D1E" stroke-width="3" stroke-miterlimit="10" stroke-linecap="round" stroke-linejoin="round"/>
<path d="M303.875 355.08L308.128 324.309L291.291 342.809L275.392 315.602L272.189 347.464L238 354.968L268.353 369.984L254.461 397.054L279.541 383.844L290.809 408.732L296.018 380.489C296.018 380.489 316.411 390.947 316.363 390.425C316.315 389.895 302.759 369.855 302.759 369.855L333.185 359.012L303.875 355.08Z" fill="white" stroke="#0D0D1E" stroke-width="3" stroke-miterlimit="10" stroke-linecap="round" stroke-linejoin="round"/>
<path d="M309.812 267.392C309.812 267.801 309.812 268.186 309.812 268.595C309.652 268.475 309.475 268.347 309.314 268.226C309.459 267.945 309.635 267.656 309.812 267.392Z" fill="#FFCF48"/>
<path d="M317.164 269.935C317.164 270.481 317.092 270.923 316.971 271.332C316.899 271.332 316.851 271.348 316.795 271.348C315.222 271.492 313.793 271.244 312.437 270.481C311.522 269.968 310.655 269.229 309.82 268.595C309.82 268.186 309.82 267.801 309.82 267.391C310.438 266.452 311.201 265.553 311.763 264.951C312.629 264.069 313.825 263.098 315.029 262.552C316.12 263.643 316.634 265.626 316.899 266.894C317.108 267.921 317.164 268.916 317.164 269.935Z" fill="#0D0D1E"/>
<path d="M316.964 271.332C317.084 270.922 317.156 270.481 317.156 269.935C317.156 268.908 317.1 267.921 316.891 266.902C316.627 265.633 316.113 263.651 315.021 262.56C315.182 262.503 315.343 262.439 315.495 262.383C318.497 261.38 321.619 262.487 323.633 264.646C323.264 265.778 322.871 266.91 322.574 268.033C322.501 268.298 322.429 268.579 322.365 268.844C322.204 269.004 322.012 269.141 321.819 269.285C320.495 270.2 318.577 271.155 316.964 271.332Z" fill="white"/>
<path d="M340.785 268.804C340.167 268.908 339.565 268.964 338.987 268.964C336.266 268.964 332.526 268.242 330.287 266.46C330.801 265.104 331.611 263.755 332.374 262.768C333.578 261.195 335.094 260.032 336.804 259.357C340.359 261.356 341.435 265.048 340.785 268.804Z" fill="#0D0D1E"/>
<path d="M342.71 258.916C344.933 259.446 348.609 261.107 349.612 263.523C347.79 266.276 344.106 268.258 340.784 268.804C341.434 265.04 340.358 261.356 336.795 259.358C338.609 258.619 340.639 258.443 342.71 258.916Z" fill="white"/>
<path d="M311.9 245.216C308.778 243.523 308.666 237.945 309.46 235.032C311.547 227.319 318.04 219.863 324.805 215.786C332.662 211.051 342.317 210.224 351.266 211.195C358.77 212.006 366.29 214.959 372.237 219.67C376.707 223.202 380.215 227.399 382.759 232.471C382.903 232.752 383.024 233.017 383.144 233.298C384.717 236.757 385.367 240.361 385.865 244.141C386.394 248.113 386.603 251.765 385.544 255.634C385.158 257.014 384.781 258.426 384.187 259.711C384.171 259.743 384.171 259.767 384.155 259.799C383.449 258.579 382.534 257.487 381.386 256.605C378.593 254.43 374.203 254.277 371.097 255.866C367.687 257.632 365.199 260.313 363.417 263.531C362.02 261.605 360.752 259.558 359.869 257.383C358.778 254.703 358.754 251.982 359.043 249.141C359.203 247.52 359.661 245.698 360.351 243.964C359.396 243.772 358.441 243.555 357.494 243.226C352.357 241.404 347.149 239.446 343.296 235.441C341.78 233.836 340.736 231.765 340.191 229.558C339.589 230.385 338.987 231.252 338.28 232.014C335.881 234.574 332.687 236.605 329.805 238.603C326.731 240.754 323.272 242.825 319.781 244.165C317.767 244.943 315.102 246.091 312.895 245.593C312.534 245.505 312.197 245.377 311.9 245.216Z" fill="#0D0D1E"/>
<path d="M424.629 251.597C426.764 264.751 416.33 277.44 403.706 279.911C398.248 280.971 391.948 280.561 386.932 278.057C385.817 277.512 384.404 276.733 383.016 275.834C384.195 274.085 385.062 272.11 385.56 269.976C386.338 266.605 385.929 262.825 384.163 259.807C384.179 259.775 384.179 259.751 384.195 259.719C384.797 258.427 385.166 257.014 385.552 255.642C386.611 251.773 386.402 248.122 385.873 244.149C385.375 240.369 384.725 236.765 383.152 233.306C388.064 228.659 397.261 227.849 403.016 229.438C413.313 232.279 422.863 240.738 424.629 251.597Z" fill="#0D0D1E"/>
<path d="M353.618 304.325C355.471 303.21 357.269 301.837 358.931 300.28C354.444 307.15 346.876 318.804 343.674 323.868L343.529 308.812C347.173 307.736 350.72 306.043 353.618 304.325Z" fill="#0D0D1E"/>
<path d="M323.641 264.638C321.627 262.487 318.505 261.372 315.503 262.375C315.342 262.431 315.182 262.495 315.029 262.551C313.826 263.097 312.63 264.068 311.763 264.951C311.201 265.553 310.439 266.452 309.821 267.391C309.837 262.391 309.941 257.343 310.559 252.367C311.386 252.527 312.501 251.998 313.224 251.893C315.198 251.628 317.429 252.567 319.122 253.45C321.009 254.437 324.684 255.272 323.745 252.423C323.216 250.818 317.244 248.98 316.065 248.731C314.476 248.394 312.461 248.555 311.017 249.421C311.249 248.009 311.546 246.612 311.899 245.216C312.196 245.376 312.533 245.497 312.887 245.585C315.094 246.083 317.758 244.935 319.773 244.157C323.272 242.816 326.731 240.746 329.797 238.595C332.678 236.596 335.872 234.566 338.272 232.006C338.978 231.243 339.58 230.384 340.182 229.55C340.728 231.757 341.771 233.819 343.288 235.433C347.14 239.437 352.341 241.404 357.485 243.218C358.44 243.555 359.395 243.763 360.342 243.956C359.652 245.689 359.195 247.503 359.034 249.132C358.753 251.974 358.769 254.694 359.861 257.375C360.744 259.55 362.012 261.596 363.408 263.523C365.19 260.312 367.678 257.624 371.089 255.858C374.195 254.269 378.593 254.429 381.378 256.596C382.525 257.479 383.44 258.571 384.147 259.791C385.912 262.808 386.322 266.588 385.543 269.959C385.045 272.094 384.187 274.076 382.999 275.818C381.129 278.659 378.464 280.954 375.358 282.439C376.964 286.885 394.797 323.539 398.448 330.585C395.198 334.895 389.797 337.752 384.941 339.502C377.405 342.238 369.155 343.506 361.177 343.177C355.407 342.929 348.505 341.797 343.801 338.025L343.697 326.829L343.665 323.86C346.859 318.795 354.435 307.142 358.922 300.272C357.261 301.829 355.463 303.201 353.609 304.317C350.712 306.027 347.164 307.728 343.529 308.803C340.631 309.67 337.702 310.16 335.005 309.983C328.593 309.558 323.143 308.603 318.673 303.659C315.76 300.449 313.657 296.243 312.421 292.11C310.479 285.722 309.805 278.659 309.805 271.998C309.805 270.866 309.805 269.718 309.805 268.571C310.631 269.205 311.498 269.951 312.421 270.457C313.777 271.219 315.214 271.46 316.779 271.323C316.835 271.323 316.883 271.307 316.956 271.307C318.561 271.131 320.487 270.176 321.811 269.261C322.004 269.116 322.196 268.98 322.357 268.819C322.429 268.555 322.501 268.274 322.566 268.009C322.879 266.901 323.272 265.77 323.641 264.638ZM348.625 250.425C348.922 249.397 347.373 248.338 346.739 247.985C344.09 246.5 331.538 248.177 330.599 250.136C329.925 251.564 331.996 252.11 332.967 252.022C334.259 251.901 335.704 251.139 336.972 250.73C340.078 249.775 342.975 250.128 346.065 250.802C346.771 250.954 348.304 251.556 348.625 250.425ZM349.612 263.531C348.609 261.115 344.933 259.454 342.71 258.924C340.647 258.45 338.617 258.627 336.795 259.365C335.086 260.039 333.561 261.203 332.365 262.776C331.602 263.763 330.792 265.104 330.278 266.468C332.517 268.25 336.265 268.972 338.978 268.972C339.564 268.972 340.158 268.916 340.776 268.811C344.098 268.258 347.79 266.283 349.612 263.531Z" fill="white"/>
<path d="M264.307 494.943L269.34 516.059L94.8772 515.81L70.0137 391.043L239.34 390.176L256.868 463.763L264.307 494.943ZM172.132 453.282C172.132 446.187 166.394 440.449 159.315 440.449C152.221 440.449 146.482 446.187 146.482 453.282C146.482 460.36 152.221 466.099 159.315 466.099C166.394 466.099 172.132 460.36 172.132 453.282Z" fill="#FFCF48"/>
<path d="M273.994 441.749C274.115 441.781 274.243 441.837 274.379 441.91C280.647 447.487 295.776 460.569 295.776 460.569C295.407 460.601 295.013 460.658 294.644 460.69C283.978 461.805 272.75 462.102 261.787 463.218V463.202C262.694 461.717 270.551 447.311 273.994 441.749Z" fill="white"/>
<path d="M314.106 458.274C307.998 459.14 301.891 459.919 295.783 460.569C295.783 460.569 280.655 447.487 274.387 441.909C287.445 447.238 307.043 455.272 314.106 458.274Z" fill="#0D0D1E"/>
<path d="M314.106 458.274C316.578 457.921 319.05 457.568 321.522 457.199C334.748 455.2 347.918 452.929 361.088 450.754C362.236 450.561 363.4 450.385 364.547 450.192C363.737 449.855 362.902 449.502 362.132 449.117C363.175 447.407 364.146 445.762 364.941 444.422C373.713 450.249 398.665 467.022 409.467 474.277C407.822 478.547 405.848 482.664 403.271 485.963C399.812 490.361 394.371 491.436 389.146 492.528C371.385 496.18 353.64 495.826 335.655 496.605C334.74 496.661 333.833 496.693 332.918 496.749C314.836 497.664 296.425 497.046 278.368 496.075C273.673 495.826 268.994 495.353 264.315 494.944L256.883 463.764C258.528 463.555 260.165 463.379 261.811 463.218C272.774 462.102 284.002 461.805 294.668 460.69C295.037 460.658 295.43 460.602 295.799 460.57C301.891 459.919 307.998 459.141 314.106 458.274Z" fill="white"/>
<path d="M366.667 445.031C378.216 450.136 397.437 458.145 412.783 464.574C411.779 467.696 410.72 471.035 409.484 474.269H409.468C398.665 467.014 373.713 450.24 364.941 444.413C364.957 444.357 364.998 444.325 365.014 444.293C365.535 444.526 366.097 444.767 366.667 445.031Z" fill="#0D0D1E"/>
<path d="M321.522 457.199C319.05 457.568 316.578 457.921 314.106 458.275C307.044 455.273 287.445 447.239 274.387 441.91C274.243 441.838 274.122 441.79 274.002 441.75C271.851 440.867 269.885 440.056 268.191 439.366C269.973 434.968 271.667 430.522 273.545 426.196C278.914 413.764 283.376 401.059 288.336 388.419C295.254 370.73 303.713 351.396 318.528 338.74C324.532 333.604 334.981 328.66 343.721 326.838L343.825 338.034C348.52 341.814 355.423 342.945 361.201 343.186C369.179 343.523 377.429 342.247 384.965 339.51C389.821 337.761 395.222 334.904 398.472 330.594C401.811 331.742 420.527 338.146 426.771 340.907C437.309 345.554 447.429 350.795 454.612 360.064C462.999 370.867 464.548 385.048 466.442 398.178C469.692 420.899 470.96 443.973 474.901 466.589C476.787 477.496 478.906 488.218 479.901 499.254C480.414 504.936 481.843 510.498 482.605 516.148L340.607 516.092C340.551 515.562 340.487 515.016 340.415 514.486C339.516 508.01 337.589 502.761 335.663 496.605C353.657 495.827 371.394 496.18 389.154 492.528C394.379 491.437 399.821 490.353 403.28 485.963C405.856 482.665 407.838 478.547 409.476 474.278H409.492C410.728 471.043 411.787 467.713 412.79 464.583C397.445 458.154 378.224 450.144 366.675 445.04C366.113 444.775 365.543 444.526 365.013 444.302C364.732 444.181 364.451 444.053 364.187 443.933C364.419 444.093 364.684 444.27 364.949 444.43C364.154 445.771 363.183 447.416 362.14 449.125C361.803 449.671 361.45 450.217 361.097 450.77C347.919 452.929 334.748 455.201 321.522 457.199Z" fill="#FFCF48"/>
<path d="M346.731 247.993C347.365 248.347 348.922 249.406 348.617 250.433C348.296 251.565 346.763 250.963 346.056 250.819C342.967 250.144 340.069 249.791 336.963 250.746C335.695 251.156 334.243 251.91 332.958 252.038C331.987 252.127 329.925 251.581 330.591 250.152C331.53 248.186 344.082 246.509 346.731 247.993Z" fill="#0D0D1E"/>
<path d="M316.064 248.731C317.244 248.98 323.215 250.818 323.745 252.423C324.684 255.264 321.008 254.438 319.122 253.45C317.429 252.568 315.205 251.629 313.223 251.893C312.501 251.998 311.385 252.527 310.559 252.367C310.679 251.38 310.839 250.409 311.016 249.421C312.461 248.555 314.475 248.394 316.064 248.731Z" fill="#0D0D1E"/>
<path d="M311.017 249.422C310.841 250.409 310.68 251.38 310.56 252.367C310.367 252.351 310.191 252.279 310.03 252.159C309.059 251.42 309.854 250.249 310.592 249.687C310.736 249.582 310.873 249.494 311.017 249.422Z" fill="#FFCF48"/>
<path d="M340.182 229.558C340.727 231.765 341.771 233.827 343.288 235.44C347.14 239.445 352.341 241.412 357.485 243.225C358.44 243.562 359.395 243.771 360.342 243.964" stroke="#0D0D1E" stroke-width="3" stroke-miterlimit="10" stroke-linecap="round" stroke-linejoin="round"/>
<path d="M360.342 243.964C359.652 245.697 359.194 247.511 359.034 249.14C358.753 251.982 358.769 254.702 359.861 257.383C360.743 259.558 362.011 261.604 363.408 263.53" stroke="#0D0D1E" stroke-width="3" stroke-miterlimit="10" stroke-linecap="round" stroke-linejoin="round"/>
<path d="M363.416 263.531C365.198 260.32 367.686 257.632 371.097 255.866C374.203 254.277 378.601 254.438 381.386 256.605C382.533 257.487 383.448 258.579 384.154 259.799C385.92 262.816 386.329 266.597 385.551 269.967C385.053 272.102 384.195 274.084 383.007 275.826C381.137 278.667 378.472 280.963 375.366 282.447C373.496 283.362 371.45 283.98 369.307 284.245" stroke="#0D0D1E" stroke-width="3" stroke-miterlimit="10" stroke-linecap="round" stroke-linejoin="round"/>
<path d="M310.559 252.367C309.941 257.343 309.836 262.391 309.82 267.391C309.82 267.801 309.82 268.186 309.82 268.595C309.82 269.743 309.82 270.89 309.82 272.022C309.82 278.675 310.494 285.738 312.437 292.134C313.673 296.268 315.775 300.465 318.689 303.683C323.159 308.627 328.608 309.582 335.021 310.008C337.726 310.184 340.655 309.687 343.544 308.828C347.18 307.752 350.727 306.059 353.624 304.342C355.478 303.226 357.276 301.854 358.937 300.297C360.807 298.547 362.501 296.605 363.897 294.614C364.162 294.582 363.929 294.671 363.897 294.735" stroke="#0D0D1E" stroke-width="3" stroke-miterlimit="10" stroke-linecap="round" stroke-linejoin="round"/>
<path d="M311.9 245.216C311.547 246.612 311.25 248.009 311.018 249.421" stroke="#0D0D1E" stroke-width="3" stroke-miterlimit="10" stroke-linecap="round" stroke-linejoin="round"/>
<path d="M327.647 279.984C326.002 280.674 321.628 282.014 320.64 279.647C320.143 278.483 320.608 276.661 320.801 275.513C321.21 273.274 321.772 271.043 322.374 268.836C322.446 268.571 322.518 268.29 322.583 268.025C322.88 266.894 323.273 265.762 323.642 264.639C323.714 264.43 323.762 264.229 323.835 264.021C324.204 262.873 324.396 261.517 324.862 260.417" stroke="#0D0D1E" stroke-width="3" stroke-miterlimit="10" stroke-linecap="round" stroke-linejoin="round"/>
<path d="M349.613 263.531C348.61 261.115 344.934 259.454 342.711 258.924C340.649 258.451 338.618 258.627 336.796 259.366C335.087 260.04 333.562 261.204 332.366 262.777C331.604 263.764 330.793 265.104 330.279 266.468" stroke="#0D0D1E" stroke-width="3" stroke-miterlimit="10" stroke-linecap="round" stroke-linejoin="round"/>
<path d="M349.613 263.53C347.791 266.283 344.107 268.265 340.785 268.811C340.167 268.916 339.565 268.972 338.987 268.972C336.266 268.972 332.526 268.249 330.287 266.468" stroke="#0D0D1E" stroke-width="3" stroke-miterlimit="10" stroke-linecap="round" stroke-linejoin="round"/>
<path d="M336.795 259.357C340.358 261.356 341.442 265.04 340.784 268.804" stroke="#0D0D1E" stroke-width="3" stroke-miterlimit="10" stroke-linecap="round" stroke-linejoin="round"/>
<path d="M309.324 268.226C309.469 267.945 309.645 267.664 309.822 267.399C310.44 266.46 311.202 265.561 311.764 264.959C312.631 264.076 313.827 263.105 315.03 262.56C315.191 262.503 315.351 262.439 315.504 262.383C318.506 261.38 321.628 262.487 323.642 264.646" stroke="#0D0D1E" stroke-width="3" stroke-miterlimit="10" stroke-linecap="round" stroke-linejoin="round"/>
<path d="M309.324 268.226C309.485 268.346 309.661 268.474 309.822 268.595C310.648 269.229 311.515 269.975 312.438 270.481C313.795 271.243 315.231 271.484 316.796 271.348C316.852 271.348 316.9 271.332 316.973 271.332C318.578 271.155 320.504 270.2 321.828 269.285C322.021 269.14 322.213 269.004 322.374 268.844" stroke="#0D0D1E" stroke-width="3" stroke-miterlimit="10" stroke-linecap="round" stroke-linejoin="round"/>
<path d="M315.021 262.56C316.113 263.651 316.627 265.633 316.891 266.901C317.1 267.929 317.156 268.916 317.156 269.935C317.156 270.481 317.084 270.922 316.964 271.332" stroke="#0D0D1E" stroke-width="3" stroke-miterlimit="10" stroke-linecap="round" stroke-linejoin="round"/>
<path d="M310.56 252.367C311.386 252.527 312.502 251.998 313.224 251.893C315.199 251.629 317.43 252.568 319.123 253.45C321.009 254.438 324.685 255.272 323.746 252.423C323.216 250.818 317.245 248.98 316.065 248.731C314.476 248.394 312.462 248.555 311.017 249.421C310.873 249.494 310.736 249.582 310.592 249.686C309.854 250.248 309.059 251.42 310.03 252.158C310.191 252.279 310.367 252.351 310.56 252.367Z" stroke="#0D0D1E" stroke-width="3" stroke-miterlimit="10" stroke-linecap="round" stroke-linejoin="round"/>
<path d="M330.599 250.144C329.925 251.572 331.996 252.118 332.967 252.03C334.259 251.909 335.704 251.147 336.972 250.738C340.078 249.783 342.975 250.136 346.065 250.81C346.771 250.954 348.304 251.548 348.625 250.425C348.922 249.397 347.373 248.338 346.739 247.985C344.082 246.508 331.53 248.186 330.599 250.144Z" stroke="#0D0D1E" stroke-width="3" stroke-miterlimit="10" stroke-linecap="round" stroke-linejoin="round"/>
<path d="M325.367 291.918C326.94 294.053 329.179 294.687 331.266 293.009C332.663 291.878 332.839 290.995 333.313 289.422" stroke="#0D0D1E" stroke-width="3" stroke-miterlimit="10" stroke-linecap="round" stroke-linejoin="round"/>
<path d="M368.568 264.606C369.628 261.942 372.806 260.513 375.543 261.131C375.615 261.147 375.703 261.163 375.775 261.203C378.689 262.014 380.631 265.674 380.543 268.531" stroke="#0D0D1E" stroke-width="3" stroke-miterlimit="10" stroke-linecap="round" stroke-linejoin="round"/>
<path d="M373.482 267.873C373.45 265.842 374.043 262.664 375.777 261.195" stroke="#0D0D1E" stroke-width="3" stroke-miterlimit="10" stroke-linecap="round" stroke-linejoin="round"/>
<path d="M340.182 229.558C339.581 230.385 338.979 231.251 338.272 232.014C335.873 234.574 332.678 236.604 329.797 238.603C326.723 240.754 323.264 242.824 319.773 244.165C317.759 244.943 315.094 246.091 312.887 245.593C312.534 245.505 312.197 245.385 311.9 245.224C308.778 243.531 308.666 237.953 309.46 235.039C311.547 227.327 318.04 219.871 324.805 215.794C332.662 211.059 342.317 210.232 351.266 211.203C358.77 212.014 366.29 214.967 372.237 219.678C376.707 223.21 380.215 227.407 382.759 232.479C382.903 232.76 383.024 233.025 383.144 233.306C384.717 236.765 385.367 240.369 385.865 244.149C386.394 248.121 386.603 251.773 385.544 255.641C385.158 257.022 384.781 258.434 384.187 259.718C384.171 259.751 384.171 259.775 384.155 259.807" stroke="#0D0D1E" stroke-width="3" stroke-miterlimit="10" stroke-linecap="round" stroke-linejoin="round"/>
<path d="M383.152 233.306C388.064 228.659 397.261 227.849 403.016 229.438C413.305 232.279 422.863 240.738 424.629 251.597C426.764 264.751 416.33 277.44 403.706 279.911C398.248 280.971 391.948 280.561 386.932 278.057C385.817 277.512 384.404 276.733 383.016 275.834" stroke="#0D0D1E" stroke-width="3" stroke-miterlimit="10" stroke-linecap="round" stroke-linejoin="round"/>
<path d="M343.818 338.033L343.714 326.837L343.682 323.868L343.537 308.812" stroke="#0D0D1E" stroke-width="3" stroke-miterlimit="10" stroke-linecap="round" stroke-linejoin="round"/>
<path d="M375.367 282.455C376.972 286.901 394.805 323.555 398.457 330.601" stroke="#0D0D1E" stroke-width="3" stroke-miterlimit="10" stroke-linecap="round" stroke-linejoin="round"/>
<path d="M343.682 323.868C346.876 318.804 354.452 307.15 358.938 300.28" stroke="#0D0D1E" stroke-width="3" stroke-miterlimit="10" stroke-linecap="round" stroke-linejoin="round"/>
<path d="M343.818 338.033C348.513 341.813 355.415 342.944 361.194 343.185C369.172 343.522 377.422 342.246 384.958 339.509C389.814 337.76 395.215 334.903 398.465 330.593" stroke="#0D0D1E" stroke-width="3" stroke-miterlimit="10" stroke-linecap="round" stroke-linejoin="round"/>
<path d="M268.184 439.365C269.965 434.967 271.659 430.521 273.537 426.195C278.906 413.763 283.368 401.058 288.328 388.418C295.246 370.729 303.705 351.395 318.521 338.739C324.524 333.603 334.973 328.659 343.713 326.837" stroke="#0D0D1E" stroke-width="3" stroke-miterlimit="10" stroke-linecap="round" stroke-linejoin="round"/>
<path d="M398.465 330.593C401.804 331.74 420.519 338.145 426.763 340.906C437.301 345.553 447.421 350.793 454.604 360.063C462.991 370.866 464.54 385.047 466.434 398.177C469.685 420.898 470.953 443.972 474.893 466.588C476.779 477.495 478.898 488.217 479.893 499.253C480.407 504.935 481.836 510.496 482.598 516.147" stroke="#0D0D1E" stroke-width="3" stroke-miterlimit="10" stroke-linecap="round" stroke-linejoin="round"/>
<path d="M426.369 470.28C435.069 451.669 453.977 405.184 454.917 399.028" stroke="#0D0D1E" stroke-width="3" stroke-miterlimit="10" stroke-linecap="round" stroke-linejoin="round"/>
<path d="M364.18 443.924C364.445 444.044 364.725 444.173 365.006 444.293C365.536 444.526 366.098 444.767 366.668 445.031C378.217 450.136 397.438 458.145 412.783 464.574C417.904 466.709 422.567 468.667 426.379 470.28" stroke="#0D0D1E" stroke-width="3" stroke-miterlimit="10" stroke-linecap="round" stroke-linejoin="round"/>
<path d="M358.883 441.436C360.175 442.07 361.973 442.92 364.164 443.907" stroke="#0D0D1E" stroke-width="3" stroke-miterlimit="10" stroke-linecap="round" stroke-linejoin="round"/>
<path d="M358.883 441.436C366.331 425.408 398.73 372.832 405.44 361.62" stroke="#0D0D1E" stroke-width="3" stroke-miterlimit="10" stroke-linecap="round" stroke-linejoin="round"/>
<path d="M321.522 457.199C320.406 450.987 319.018 444.879 317.782 438.611C315.559 427.295 317.196 415.304 319.226 404.133C321.08 393.996 322.581 383.603 325.511 373.715C327.661 366.46 329.676 358.884 330.791 351.38" stroke="#0D0D1E" stroke-width="3" stroke-miterlimit="10" stroke-linecap="round" stroke-linejoin="round"/>
<path d="M268.184 439.365C269.877 440.055 271.835 440.866 273.994 441.749C274.115 441.781 274.243 441.837 274.379 441.909C287.445 447.238 307.044 455.272 314.099 458.274C314.115 458.274 314.131 458.29 314.155 458.29" stroke="#0D0D1E" stroke-width="3" stroke-miterlimit="10" stroke-linecap="round" stroke-linejoin="round"/>
<path d="M261.795 463.202C262.694 461.717 270.551 447.311 273.994 441.749" stroke="#0D0D1E" stroke-width="3" stroke-miterlimit="10" stroke-linecap="round" stroke-linejoin="round"/>
<path d="M365.007 444.293C364.991 444.325 364.95 444.365 364.934 444.413C364.14 445.754 363.169 447.399 362.125 449.108C361.788 449.654 361.435 450.2 361.082 450.754" stroke="#0D0D1E" stroke-width="3" stroke-miterlimit="10" stroke-linecap="round" stroke-linejoin="round"/>
<path d="M256.867 463.764C258.512 463.555 260.15 463.379 261.795 463.218C272.758 462.102 283.986 461.806 294.652 460.69C295.021 460.658 295.415 460.602 295.784 460.57C301.891 459.92 307.999 459.141 314.106 458.274C316.578 457.921 319.05 457.568 321.522 457.199C334.748 455.2 347.919 452.929 361.089 450.754C362.236 450.562 363.4 450.385 364.548 450.192" stroke="#0D0D1E" stroke-width="3" stroke-miterlimit="10" stroke-linecap="round" stroke-linejoin="round"/>
<path d="M409.477 474.269C410.713 471.035 411.772 467.704 412.775 464.574" stroke="#0D0D1E" stroke-width="3" stroke-miterlimit="10" stroke-linecap="round" stroke-linejoin="round"/>
<path d="M264.307 494.944C268.986 495.353 273.665 495.826 278.36 496.075C296.417 497.046 314.836 497.664 332.91 496.749C333.825 496.693 334.732 496.661 335.647 496.605C353.64 495.826 371.377 496.179 389.138 492.528C394.363 491.436 399.804 490.353 403.263 485.963C405.84 482.664 407.822 478.547 409.459 474.277" stroke="#0D0D1E" stroke-width="3" stroke-miterlimit="10" stroke-linecap="round" stroke-linejoin="round"/>
<path d="M364.549 450.192C363.738 449.855 362.903 449.501 362.133 449.116" stroke="#0D0D1E" stroke-width="3" stroke-miterlimit="10" stroke-linecap="round" stroke-linejoin="round"/>
<path d="M364.154 443.908C364.154 443.908 364.154 443.908 364.17 443.924C364.403 444.085 364.668 444.261 364.933 444.422C373.705 450.248 398.657 467.022 409.459 474.277H409.475" stroke="#0D0D1E" stroke-width="3" stroke-miterlimit="10" stroke-linecap="round" stroke-linejoin="round"/>
<path d="M335.648 496.604C337.575 502.768 339.501 508.009 340.4 514.486C340.472 515.015 340.544 515.561 340.592 516.091" stroke="#0D0D1E" stroke-width="3" stroke-miterlimit="10" stroke-linecap="round" stroke-linejoin="round"/>
<path d="M269.331 516.058L94.8692 515.81L70.0137 391.042L239.34 390.184L256.868 463.763L264.307 494.943L269.331 516.058ZM269.331 516.058L340.592 516.091L482.582 516.147" stroke="#0D0D1E" stroke-width="3" stroke-miterlimit="10" stroke-linecap="round" stroke-linejoin="round"/>
<path d="M274.387 441.909C280.655 447.487 295.783 460.569 295.783 460.569" stroke="#0D0D1E" stroke-width="3" stroke-miterlimit="10" stroke-linecap="round" stroke-linejoin="round"/>
<path d="M172.132 453.281C172.132 460.36 166.394 466.098 159.315 466.098C152.221 466.098 146.482 460.36 146.482 453.281C146.482 446.187 152.221 440.448 159.315 440.448C166.394 440.44 172.132 446.179 172.132 453.281Z" fill="white" stroke="#0D0D1E" stroke-width="3" stroke-miterlimit="10" stroke-linecap="round" stroke-linejoin="round"/>
<path d="M146.058 300.899C159.767 300.899 170.881 289.785 170.881 276.075C170.881 262.366 159.767 251.252 146.058 251.252C132.348 251.252 121.234 262.366 121.234 276.075C121.234 289.785 132.348 300.899 146.058 300.899Z" fill="white" stroke="#0D0D1E" stroke-width="3" stroke-miterlimit="10" stroke-linecap="round" stroke-linejoin="round"/>
<path d="M109.549 263.106C114.878 248.09 129.212 237.344 146.058 237.344C152.799 237.344 159.14 239.069 164.661 242.095" stroke="#0D0D1E" stroke-width="3" stroke-miterlimit="10" stroke-linecap="round" stroke-linejoin="round"/>
<path d="M164.662 242.095C176.171 248.403 184.124 260.401 184.75 274.294" stroke="#0D0D1E" stroke-width="3" stroke-miterlimit="10" stroke-linecap="round" stroke-linejoin="round"/>
<path d="M107.365 274.302C107.542 270.394 108.296 266.63 109.548 263.106" stroke="#0D0D1E" stroke-width="3" stroke-miterlimit="10" stroke-linecap="round" stroke-linejoin="round"/>
<path d="M107.365 277.85C108.288 298.419 125.263 314.808 146.057 314.808C166.86 314.808 183.826 298.411 184.749 277.85" stroke="#0D0D1E" stroke-width="3" stroke-miterlimit="10" stroke-linecap="round" stroke-linejoin="round"/>
<path d="M184.75 274.302L190.962 265.603" stroke="#0D0D1E" stroke-width="3" stroke-miterlimit="10" stroke-linecap="round" stroke-linejoin="round"/>
<path d="M184.749 274.302L176.041 268.099" stroke="#0D0D1E" stroke-width="3" stroke-miterlimit="10" stroke-linecap="round" stroke-linejoin="round"/>
<path d="M107.366 277.85L101.162 286.557" stroke="#0D0D1E" stroke-width="3" stroke-miterlimit="10" stroke-linecap="round" stroke-linejoin="round"/>
<path d="M107.365 277.85L116.073 284.053" stroke="#0D0D1E" stroke-width="3" stroke-miterlimit="10" stroke-linecap="round" stroke-linejoin="round"/>
<path d="M134.438 289.383C134.438 282.962 139.638 277.762 146.059 277.762C152.479 277.762 157.68 282.962 157.68 289.383H134.438Z" fill="#FFCF48" stroke="#0D0D1E" stroke-width="3" stroke-miterlimit="10" stroke-linecap="round" stroke-linejoin="round"/>
<path d="M146.058 273.909C149.134 273.909 151.628 271.415 151.628 268.339C151.628 265.263 149.134 262.77 146.058 262.77C142.982 262.77 140.488 265.263 140.488 268.339C140.488 271.415 142.982 273.909 146.058 273.909Z" fill="#FFCF48" stroke="#0D0D1E" stroke-width="3" stroke-miterlimit="10" stroke-linecap="round" stroke-linejoin="round"/>
<path d="M269.163 204.695C269.163 199.446 264.894 195.177 259.645 195.177C255.793 195.177 252.47 197.472 250.977 200.771C249.484 197.472 246.162 195.177 242.309 195.177C237.061 195.177 232.791 199.446 232.791 204.695C232.791 205.803 232.984 206.862 233.329 207.857C233.73 208.981 234.332 210.016 235.094 210.899C235.423 211.276 235.777 211.629 236.154 211.958L250.672 226.381C250.761 226.469 250.881 226.517 250.993 226.517C251.114 226.517 251.226 226.469 251.322 226.381L266.379 211.421C267.358 210.442 268.12 209.254 268.602 207.93C268.963 206.91 269.163 205.827 269.163 204.695Z" fill="#FFCF48" stroke="#0D0D1E" stroke-width="3" stroke-miterlimit="10" stroke-linecap="round" stroke-linejoin="round"/>
<path d="M152.949 104.883L135.629 122.203L150.236 136.81L167.556 119.49L152.949 104.883Z" fill="#FFCF48" stroke="#0D0D1E" stroke-width="3" stroke-miterlimit="10" stroke-linecap="round" stroke-linejoin="round"/>
<path d="M110.456 147.383L93.1362 164.703L68.2646 139.831C51.7477 123.314 51.7477 96.5246 68.2646 80.0078C84.7814 63.4909 111.571 63.4909 128.088 80.0078L152.96 104.879L135.64 122.199L110.769 97.3352C103.818 90.385 92.5423 90.385 85.584 97.3352C78.6338 104.285 78.6338 115.562 85.584 122.512L110.456 147.383Z" fill="white" stroke="#0D0D1E" stroke-width="3" stroke-miterlimit="10" stroke-linecap="round" stroke-linejoin="round"/>
<path d="M110.453 147.381L93.1328 164.701L107.74 179.309L125.06 161.989L110.453 147.381Z" fill="#FFCF48" stroke="#0D0D1E" stroke-width="3" stroke-miterlimit="10" stroke-linecap="round" stroke-linejoin="round"/>
<path d="M200.206 409.278C212.289 409.278 222.084 399.482 222.084 387.4C222.084 375.317 212.289 365.521 200.206 365.521C188.123 365.521 178.328 375.317 178.328 387.4C178.328 399.482 188.123 409.278 200.206 409.278Z" fill="white" stroke="#0D0D1E" stroke-width="3" stroke-miterlimit="10" stroke-linecap="round" stroke-linejoin="round"/>
<path d="M200.205 378.668V396.22" stroke="#0D0D1E" stroke-width="3" stroke-miterlimit="10" stroke-linecap="round" stroke-linejoin="round"/>
<path d="M191.426 387.448H208.978" stroke="#0D0D1E" stroke-width="3" stroke-miterlimit="10" stroke-linecap="round" stroke-linejoin="round"/>
<path d="M353.08 161.453L349.019 166.774L346.026 160.771L343.995 166.774L339.742 160.771L335.199 165.61" stroke="#0D0D1E" stroke-width="3" stroke-miterlimit="10" stroke-linecap="round" stroke-linejoin="round"/>
<path d="M444.678 299.261C446.162 300.063 447.262 301.46 448.185 302.888C455.52 314.277 455.047 328.827 454.301 342.359" stroke="#0D0D1E" stroke-width="3" stroke-miterlimit="10" stroke-linecap="round" stroke-linejoin="round"/>
<path d="M444.676 299.261C445.15 300.433 445.423 301.661 445.326 302.913C445.158 304.911 443.842 306.918 441.875 307.351C439.05 307.977 436.37 304.598 437.293 301.845C438.216 299.109 441.875 297.873 444.476 299.149C444.548 299.189 444.62 299.229 444.676 299.261Z" stroke="#0D0D1E" stroke-width="3" stroke-miterlimit="10" stroke-linecap="round" stroke-linejoin="round"/>
<path d="M422.502 287.215C430.688 285.987 439.42 290.12 443.658 297.231C444.051 297.881 444.404 298.555 444.677 299.261" stroke="#0D0D1E" stroke-width="3" stroke-miterlimit="10" stroke-linecap="round" stroke-linejoin="round"/>
<path d="M95.7363 352.681V357.119" stroke="#0D0D1E" stroke-width="3" stroke-miterlimit="10" stroke-linecap="round" stroke-linejoin="round"/>
<path d="M104.301 361.244H99.8633" stroke="#0D0D1E" stroke-width="3" stroke-miterlimit="10" stroke-linecap="round" stroke-linejoin="round"/>
<path d="M95.7363 369.807V365.369" stroke="#0D0D1E" stroke-width="3" stroke-miterlimit="10" stroke-linecap="round" stroke-linejoin="round"/>
<path d="M87.1738 361.244H91.612" stroke="#0D0D1E" stroke-width="3" stroke-miterlimit="10" stroke-linecap="round" stroke-linejoin="round"/>
<path d="M213.626 319.157C213.041 319.486 212.487 319.872 211.989 320.313C209.565 322.424 208.161 325.514 207.503 328.66C206.307 334.358 207.463 340.514 210.633 345.401" stroke="#0D0D1E" stroke-width="3" stroke-miterlimit="10" stroke-linecap="round" stroke-linejoin="round"/>
<path d="M213.627 319.157C213.675 321.653 214.967 324.206 217.222 325.257C219.55 326.348 222.808 325.289 223.603 322.841C223.795 322.263 223.844 321.629 223.699 321.043C223.386 319.751 222.198 318.836 220.962 318.363C218.587 317.456 215.858 317.881 213.627 319.157Z" stroke="#0D0D1E" stroke-width="3" stroke-miterlimit="10" stroke-linecap="round" stroke-linejoin="round"/>
<path d="M232.961 302.922C226.388 302.617 220.023 306.389 216.267 311.782C214.799 313.893 213.651 316.332 213.627 318.909C213.627 318.989 213.627 319.077 213.635 319.158" stroke="#0D0D1E" stroke-width="3" stroke-miterlimit="10" stroke-linecap="round" stroke-linejoin="round"/>
</svg>
